<?xml version="1.0" encoding="UTF-8"?>
<svg id="Artwork" xmlns="http://www.w3.org/2000/svg" viewBox="0 0 695.15 132.08">
  <defs>
    <style>
      .cls-1 {
        fill: #fff;
        stroke-width: 0px;
      }
    </style>
  </defs>
  <g>
    <path class="cls-1" d="M99.29,81.72v-13.8h8.02v2.24h-5.4v3.3h4.16l.36,2.22h-4.52v3.8h5.6v2.24h-8.22Z"/>
    <path class="cls-1" d="M115.71,81.72v-6.32c0-.84-.36-1.42-1.24-1.42-.76,0-1.5.48-2.2,1.22v6.52h-2.4v-9.66h2.04l.22,1.36c.9-.86,1.92-1.56,3.22-1.56,1.8,0,2.76,1.1,2.76,2.9v6.96h-2.4Z"/>
    <path class="cls-1" d="M124.33,85.36c-2.62,0-4.6-.8-4.6-2.4,0-.92.62-1.6,1.82-2.26-.38-.3-.56-.66-.56-1.06,0-.54.42-1.06,1.22-1.52-1.14-.54-1.82-1.56-1.82-2.84,0-2.1,1.72-3.42,3.88-3.42,1.1,0,2.04.32,2.74.9l2.36-.84.32,1.92-1.76.12c.16.38.26.82.26,1.26,0,2.08-1.78,3.32-3.86,3.32-.28,0-.56,0-.8-.04-.24.16-.38.34-.38.5,0,.32.3.4,1.8.62l1.24.12c1.98.28,3.22.9,3.22,2.38,0,2.08-2.28,3.24-5.08,3.24ZM122.83,81.26c-.7.48-1.02.94-1.02,1.44,0,.72.86,1.24,2.68,1.24,1.72,0,2.7-.58,2.7-1.3,0-.52-.42-.82-1.62-1l-1.3-.16c-.66-.08-.98-.12-1.44-.22ZM124.29,73.4c-1.06,0-1.68.82-1.68,1.88,0,1,.64,1.76,1.68,1.76s1.7-.78,1.7-1.82-.68-1.82-1.7-1.82Z"/>
    <path class="cls-1" d="M133.15,70.44c-.8,0-1.44-.56-1.44-1.36s.64-1.4,1.44-1.4,1.42.58,1.42,1.4-.64,1.36-1.42,1.36ZM131.93,81.72v-9.66h2.4v9.66h-2.4Z"/>
    <path class="cls-1" d="M143.37,81.72v-6.32c0-.84-.36-1.42-1.24-1.42-.76,0-1.5.48-2.2,1.22v6.52h-2.4v-9.66h2.04l.22,1.36c.9-.86,1.92-1.56,3.22-1.56,1.8,0,2.76,1.1,2.76,2.9v6.96h-2.4Z"/>
    <path class="cls-1" d="M152.73,81.92c-2.7,0-4.72-1.54-4.72-5.02,0-3.14,1.88-5.04,4.4-5.04,2.9,0,4.2,2.18,4.2,4.92,0,.2-.02.44-.02.58h-6.22c.12,1.9,1.14,2.7,2.62,2.7,1.24,0,2.26-.46,3.32-1.2l.28,1.88c-1.04.72-2.3,1.18-3.86,1.18ZM150.41,75.86h3.86c-.16-1.5-.76-2.34-1.92-2.34-.96,0-1.76.78-1.94,2.34Z"/>
    <path class="cls-1" d="M163.21,81.92c-2.7,0-4.72-1.54-4.72-5.02,0-3.14,1.88-5.04,4.4-5.04,2.9,0,4.2,2.18,4.2,4.92,0,.2-.02.44-.02.58h-6.22c.12,1.9,1.14,2.7,2.62,2.7,1.24,0,2.26-.46,3.32-1.2l.28,1.88c-1.04.72-2.3,1.18-3.86,1.18ZM160.89,75.86h3.86c-.16-1.5-.76-2.34-1.92-2.34-.96,0-1.76.78-1.94,2.34Z"/>
    <path class="cls-1" d="M171.87,76.18v5.54h-2.4v-9.66h2.04l.3,1.94c.64-1.12,1.6-2.06,3.1-2.14l.38,2.38c-1.5.1-2.74.9-3.42,1.94Z"/>
    <path class="cls-1" d="M178.78,70.44c-.8,0-1.44-.56-1.44-1.36s.64-1.4,1.44-1.4,1.42.58,1.42,1.4-.64,1.36-1.42,1.36ZM177.56,81.72v-9.66h2.4v9.66h-2.4Z"/>
    <path class="cls-1" d="M188.6,81.72v-6.32c0-.84-.36-1.42-1.24-1.42-.76,0-1.5.48-2.2,1.22v6.52h-2.4v-9.66h2.04l.22,1.36c.9-.86,1.92-1.56,3.22-1.56,1.8,0,2.76,1.1,2.76,2.9v6.96h-2.4Z"/>
    <path class="cls-1" d="M197.61,85.36c-2.62,0-4.6-.8-4.6-2.4,0-.92.62-1.6,1.82-2.26-.38-.3-.56-.66-.56-1.06,0-.54.42-1.06,1.22-1.52-1.14-.54-1.82-1.56-1.82-2.84,0-2.1,1.72-3.42,3.88-3.42,1.1,0,2.04.32,2.74.9l2.36-.84.32,1.92-1.76.12c.16.38.26.82.26,1.26,0,2.08-1.78,3.32-3.86,3.32-.28,0-.56,0-.8-.04-.24.16-.38.34-.38.5,0,.32.3.4,1.8.62l1.24.12c1.98.28,3.22.9,3.22,2.38,0,2.08-2.28,3.24-5.08,3.24ZM196.11,81.26c-.7.48-1.02.94-1.02,1.44,0,.72.86,1.24,2.68,1.24,1.72,0,2.7-.58,2.7-1.3,0-.52-.42-.82-1.62-1l-1.3-.16c-.66-.08-.98-.12-1.44-.22ZM197.57,73.4c-1.06,0-1.68.82-1.68,1.88,0,1,.64,1.76,1.68,1.76s1.7-.78,1.7-1.82-.68-1.82-1.7-1.82Z"/>
    <path class="cls-1" d="M214.35,76.64h-1.18v5.08h-2.64v-13.8h4.04c3.16,0,5.06,1.46,5.06,4.24,0,2.98-2.12,4.48-5.28,4.48ZM214.43,70.04h-1.26v4.46h1.16c1.7,0,2.7-.7,2.7-2.28,0-1.44-.9-2.18-2.6-2.18Z"/>
    <path class="cls-1" d="M227.53,81.72v-6.32c0-.84-.36-1.42-1.24-1.42-.76,0-1.5.48-2.2,1.22v6.52h-2.4v-14.06l2.4-.38v6c.8-.74,1.8-1.42,3.08-1.42,1.8,0,2.76,1.1,2.76,2.9v6.96h-2.4Z"/>
    <path class="cls-1" d="M237.09,82.34c-.82,2.32-1.94,3.02-3.68,3.02-.52,0-.76-.04-.98-.1l-.32-2.02c.3.08.64.14,1.06.14.76,0,1.32-.32,1.7-1.22l.14-.4-3.5-9.52,2.5-.32,2.24,6.86,2.12-6.72h2.42l-3.7,10.28Z"/>
    <path class="cls-1" d="M245.73,81.92c-1.4,0-2.84-.44-3.76-.94l.32-2c1.04.68,2.32,1.14,3.52,1.14,1.04,0,1.6-.38,1.6-1.02,0-.68-.42-.96-1.96-1.34-2.34-.6-3.32-1.28-3.32-3.04s1.32-2.86,3.56-2.86c1.26,0,2.42.26,3.38.68l-.32,2c-.96-.54-2.1-.88-3.06-.88-.9,0-1.34.36-1.34.88s.36.82,1.8,1.2c2.5.64,3.48,1.32,3.48,3.14s-1.36,3.04-3.9,3.04Z"/>
    <path class="cls-1" d="M253.5,70.44c-.8,0-1.44-.56-1.44-1.36s.64-1.4,1.44-1.4,1.42.58,1.42,1.4-.64,1.36-1.42,1.36ZM252.28,81.72v-9.66h2.4v9.66h-2.4Z"/>
    <path class="cls-1" d="M261.54,81.9c-2.68,0-4.58-1.8-4.58-4.96,0-3.36,2.1-5.08,4.72-5.08,1.26,0,2.26.38,2.96.82l-.34,2.16c-.78-.58-1.54-.9-2.5-.9-1.42,0-2.42,1.02-2.42,2.94s1.1,2.96,2.5,2.96c.84,0,1.66-.24,2.54-.92l.32,2.06c-.92.62-1.92.92-3.2.92Z"/>
    <path class="cls-1" d="M270.68,81.92c-1.4,0-2.84-.44-3.76-.94l.32-2c1.04.68,2.32,1.14,3.52,1.14,1.04,0,1.6-.38,1.6-1.02,0-.68-.42-.96-1.96-1.34-2.34-.6-3.32-1.28-3.32-3.04s1.32-2.86,3.56-2.86c1.26,0,2.42.26,3.38.68l-.32,2c-.96-.54-2.1-.88-3.06-.88-.9,0-1.34.36-1.34.88s.36.82,1.8,1.2c2.5.64,3.48,1.32,3.48,3.14s-1.36,3.04-3.9,3.04Z"/>
    <path class="cls-1" d="M101.05,93.93v4.92h4.44l.2,1.24h-4.64v6.38h-1.38v-13.8h6.92v1.26h-5.54Z"/>
    <path class="cls-1" d="M114.69,106.47l-.22-1.26c-.88.82-1.98,1.46-3.34,1.46-1.64,0-2.82-.9-2.82-2.58,0-2.22,1.8-3.26,6.08-3.68v-.62c0-1.28-.76-1.82-1.96-1.82-1.12,0-2.22.34-3.26.84l-.18-1.18c1.1-.48,2.18-.82,3.52-.82,2.1,0,3.18.98,3.18,2.92v6.74h-1ZM114.39,101.45c-3.72.38-4.76,1.28-4.76,2.56,0,1.02.7,1.54,1.7,1.54s2.14-.56,3.06-1.42v-2.68Z"/>
    <path class="cls-1" d="M122.31,106.67c-2.42,0-4.28-1.8-4.28-4.92s1.92-4.94,4.36-4.94c1.28,0,2.3.42,3.04.96l-.22,1.32c-.88-.74-1.76-1.14-2.86-1.14-1.72,0-2.98,1.36-2.98,3.78s1.28,3.78,3.06,3.78c1,0,1.94-.3,2.9-1.12l.18,1.22c-.88.68-1.9,1.06-3.2,1.06Z"/>
    <path class="cls-1" d="M134.49,106.47l-.22-1.4c-1.04.92-2.12,1.6-3.4,1.6-1.9,0-2.82-1.1-2.82-2.9v-6.76h1.32v6.52c0,1.22.56,1.94,1.76,1.94,1,0,2.02-.6,3.06-1.62v-6.84h1.32v9.46h-1.02Z"/>
    <path class="cls-1" d="M138.91,106.47v-14.12l1.3-.24v14.36h-1.3Z"/>
    <path class="cls-1" d="M146.53,106.63c-1.48,0-2.46-.58-2.46-2.32v-6.18h-1.46v-1.12h1.46v-3.28l1.3-.22v3.5h2.18l.18,1.12h-2.36v5.96c0,.96.38,1.38,1.4,1.38.3,0,.66-.06.88-.1l.2,1.1c-.28.08-.76.16-1.32.16Z"/>
    <path class="cls-1" d="M154.11,107.71c-.66,1.82-1.52,2.36-2.84,2.36-.26,0-.44-.04-.58-.06l-.2-1.18c.22.04.48.08.76.08.82,0,1.3-.36,1.68-1.4l.4-.98-3.58-9.4,1.3-.24,2.92,8.04,2.78-7.92h1.38l-4.02,10.7Z"/>
    <path class="cls-1" d="M170.05,106.67c-2.42,0-4.24-1.8-4.24-4.92s1.86-4.94,4.24-4.94,4.3,1.8,4.3,4.94-1.88,4.92-4.3,4.92ZM170.05,97.93c-1.76,0-2.9,1.44-2.9,3.82s1.18,3.8,2.9,3.8,2.94-1.44,2.94-3.8-1.16-3.82-2.94-3.82Z"/>
    <path class="cls-1" d="M180.21,93.37c-.9,0-1.44.42-1.44,1.46v2.18h1.94l.18,1.12h-2.12v8.34h-1.3v-8.34h-1.44v-1.12h1.44v-2.28c0-1.74,1.04-2.54,2.66-2.54.3,0,.48.02.68.04l.2,1.22c-.18-.04-.44-.08-.8-.08Z"/>
    <path class="cls-1" d="M193.69,92.59h1.42l5.4,13.72-1.36.3-1.76-4.6h-6.02l-1.7,4.46h-1.42l5.44-13.88ZM191.84,100.79h5.06l-2.54-6.6-2.52,6.6Z"/>
    <path class="cls-1" d="M206.48,106.59c-.94,0-1.78-.18-2.46-.46v3.78l-1.32.22v-13.12h1.02l.22,1.36c.74-.84,1.68-1.56,3.06-1.56,2.06,0,3.8,1.5,3.8,4.66,0,3.46-2.02,5.12-4.32,5.12ZM206.86,97.99c-1.12,0-1.98.66-2.84,1.7v5.22c.74.36,1.44.56,2.42.56,1.7,0,3.02-1.3,3.02-3.94,0-2.3-1.1-3.54-2.6-3.54Z"/>
    <path class="cls-1" d="M216.6,106.59c-.94,0-1.78-.18-2.46-.46v3.78l-1.32.22v-13.12h1.02l.22,1.36c.74-.84,1.68-1.56,3.06-1.56,2.06,0,3.8,1.5,3.8,4.66,0,3.46-2.02,5.12-4.32,5.12ZM216.98,97.99c-1.12,0-1.98.66-2.84,1.7v5.22c.74.36,1.44.56,2.42.56,1.7,0,3.02-1.3,3.02-3.94,0-2.3-1.1-3.54-2.6-3.54Z"/>
    <path class="cls-1" d="M223.44,106.47v-14.12l1.3-.24v14.36h-1.3Z"/>
    <path class="cls-1" d="M228.88,94.75c-.52,0-.96-.44-.96-.96s.44-.96.96-.96.94.44.94.96-.42.96-.94.96ZM228.22,106.47v-9.46h1.3v9.46h-1.3Z"/>
    <path class="cls-1" d="M236.62,106.67c-2.48,0-4.26-1.68-4.26-4.94,0-3.04,1.72-4.92,4.06-4.92,2.56,0,3.84,2.12,3.84,4.74v.28h-6.58c.04,2.34,1.12,3.7,3.02,3.7,1.26,0,2.36-.56,3.34-1.4l.2,1.2c-.94.8-2.16,1.34-3.62,1.34ZM233.72,100.79h5.18c-.12-1.7-.96-2.92-2.5-2.92-1.38,0-2.42,1.02-2.68,2.92Z"/>
    <path class="cls-1" d="M249.68,106.47l-.24-1.38c-.72.86-1.66,1.58-3.04,1.58-2.08,0-3.82-1.48-3.82-4.66,0-3.46,2.02-5.14,4.32-5.14.96,0,1.8.18,2.46.48v-5l1.32-.24v14.36h-1ZM249.36,98.57c-.74-.38-1.44-.56-2.42-.56-1.7,0-3.02,1.28-3.02,3.94,0,2.3,1.1,3.54,2.6,3.54,1.12,0,2-.68,2.84-1.7v-5.22Z"/>
    <path class="cls-1" d="M263.22,106.63c-1.48,0-2.74-.38-3.66-.86l.2-1.4c.84.54,2.12,1.04,3.52,1.04,1.62,0,2.84-.92,2.84-2.48,0-1.36-.68-2.04-2.78-2.96-2.64-1.16-3.6-2.04-3.6-3.98,0-2.08,1.68-3.48,3.96-3.48,1.3,0,2.32.3,3.04.72l-.2,1.38c-.78-.52-1.74-.88-2.9-.88-1.62,0-2.52.98-2.52,2.18s.66,1.84,2.78,2.78c2.56,1.12,3.6,2.12,3.6,4.14,0,2.36-1.86,3.8-4.28,3.8Z"/>
    <path class="cls-1" d="M273.82,106.67c-2.42,0-4.28-1.8-4.28-4.92s1.92-4.94,4.36-4.94c1.28,0,2.3.42,3.04.96l-.22,1.32c-.88-.74-1.76-1.14-2.86-1.14-1.72,0-2.98,1.36-2.98,3.78s1.28,3.78,3.06,3.78c1,0,1.94-.3,2.9-1.12l.18,1.22c-.88.68-1.9,1.06-3.2,1.06Z"/>
    <path class="cls-1" d="M280.75,94.75c-.52,0-.96-.44-.96-.96s.44-.96.96-.96.94.44.94.96-.42.96-.94.96ZM280.09,106.47v-9.46h1.3v9.46h-1.3Z"/>
    <path class="cls-1" d="M288.09,106.67c-2.48,0-4.26-1.68-4.26-4.94,0-3.04,1.72-4.92,4.06-4.92,2.56,0,3.84,2.12,3.84,4.74v.28h-6.58c.04,2.34,1.12,3.7,3.02,3.7,1.26,0,2.36-.56,3.34-1.4l.2,1.2c-.94.8-2.16,1.34-3.62,1.34ZM285.19,100.79h5.18c-.12-1.7-.96-2.92-2.5-2.92-1.38,0-2.42,1.02-2.68,2.92Z"/>
    <path class="cls-1" d="M300.31,106.47v-6.52c0-1.22-.56-1.96-1.76-1.96-1,0-2.02.62-3.06,1.64v6.84h-1.32v-9.46h1.02l.22,1.4c1.04-.92,2.12-1.6,3.4-1.6,1.88,0,2.82,1.08,2.82,2.9v6.76h-1.32Z"/>
    <path class="cls-1" d="M307.85,106.67c-2.42,0-4.28-1.8-4.28-4.92s1.92-4.94,4.36-4.94c1.28,0,2.3.42,3.04.96l-.22,1.32c-.88-.74-1.76-1.14-2.86-1.14-1.72,0-2.98,1.36-2.98,3.78s1.28,3.78,3.06,3.78c1,0,1.94-.3,2.9-1.12l.18,1.22c-.88.68-1.9,1.06-3.2,1.06Z"/>
    <path class="cls-1" d="M317.27,106.67c-2.48,0-4.26-1.68-4.26-4.94,0-3.04,1.72-4.92,4.06-4.92,2.56,0,3.84,2.12,3.84,4.74v.28h-6.58c.04,2.34,1.12,3.7,3.02,3.7,1.26,0,2.36-.56,3.34-1.4l.2,1.2c-.94.8-2.16,1.34-3.62,1.34ZM314.37,100.79h5.18c-.12-1.7-.96-2.92-2.5-2.92-1.38,0-2.42,1.02-2.68,2.92Z"/>
    <path class="cls-1" d="M330.07,110.25v-18.04l1.18-.2v18.04l-1.18.2Z"/>
    <path class="cls-1" d="M344.99,106.47h-3.7v-13.8h3.76c4.6,0,7.18,2.78,7.18,6.88s-2.8,6.92-7.24,6.92ZM345.07,93.91h-2.4v11.32h2.4c3.5,0,5.74-1.88,5.74-5.66s-2.3-5.66-5.74-5.66Z"/>
    <path class="cls-1" d="M358.23,106.67c-2.48,0-4.26-1.68-4.26-4.94,0-3.04,1.72-4.92,4.06-4.92,2.56,0,3.84,2.12,3.84,4.74v.28h-6.58c.04,2.34,1.12,3.7,3.02,3.7,1.26,0,2.36-.56,3.34-1.4l.2,1.2c-.94.8-2.16,1.34-3.62,1.34ZM355.33,100.79h5.18c-.12-1.7-.96-2.92-2.5-2.92-1.38,0-2.42,1.02-2.68,2.92Z"/>
    <path class="cls-1" d="M368.09,106.59c-.94,0-1.78-.18-2.46-.46v3.78l-1.32.22v-13.12h1.02l.22,1.36c.74-.84,1.68-1.56,3.06-1.56,2.06,0,3.8,1.5,3.8,4.66,0,3.46-2.02,5.12-4.32,5.12ZM368.47,97.99c-1.12,0-1.98.66-2.84,1.7v5.22c.74.36,1.44.56,2.42.56,1.7,0,3.02-1.3,3.02-3.94,0-2.3-1.1-3.54-2.6-3.54Z"/>
    <path class="cls-1" d="M380.55,106.47l-.22-1.26c-.88.82-1.98,1.46-3.34,1.46-1.64,0-2.82-.9-2.82-2.58,0-2.22,1.8-3.26,6.08-3.68v-.62c0-1.28-.76-1.82-1.96-1.82-1.12,0-2.22.34-3.26.84l-.18-1.18c1.1-.48,2.18-.82,3.52-.82,2.1,0,3.18.98,3.18,2.92v6.74h-1ZM380.25,101.45c-3.72.38-4.76,1.28-4.76,2.56,0,1.02.7,1.54,1.7,1.54s2.14-.56,3.06-1.42v-2.68Z"/>
    <path class="cls-1" d="M385.35,100.53v5.94h-1.32v-9.46h.98l.3,1.94c.7-1.06,1.8-2.1,3.36-2.14l.22,1.24c-1.56.1-2.9,1.22-3.54,2.48Z"/>
    <path class="cls-1" d="M395.02,106.63c-1.48,0-2.46-.58-2.46-2.32v-6.18h-1.46v-1.12h1.46v-3.28l1.3-.22v3.5h2.18l.18,1.12h-2.36v5.96c0,.96.38,1.38,1.4,1.38.3,0,.66-.06.88-.1l.2,1.1c-.28.08-.76.16-1.32.16Z"/>
    <path class="cls-1" d="M411.28,106.47v-6.52c0-1.22-.5-1.96-1.72-1.96-.98,0-1.96.6-3,1.62v6.86h-1.3v-6.52c0-1.22-.5-1.96-1.72-1.96-.98,0-1.98.6-3,1.6v6.88h-1.32v-9.46h1.02l.22,1.36c1.02-.9,2.08-1.56,3.34-1.56,1.46,0,2.26.6,2.6,1.64,1.04-.94,2.14-1.64,3.44-1.64,1.88,0,2.76,1.08,2.76,2.88v6.78h-1.32Z"/>
    <path class="cls-1" d="M419.21,106.67c-2.48,0-4.26-1.68-4.26-4.94,0-3.04,1.72-4.92,4.06-4.92,2.56,0,3.84,2.12,3.84,4.74v.28h-6.58c.04,2.34,1.12,3.7,3.02,3.7,1.26,0,2.36-.56,3.34-1.4l.2,1.2c-.94.8-2.16,1.34-3.62,1.34ZM416.31,100.79h5.18c-.12-1.7-.96-2.92-2.5-2.92-1.38,0-2.42,1.02-2.68,2.92Z"/>
    <path class="cls-1" d="M431.83,106.47v-6.52c0-1.22-.56-1.96-1.76-1.96-1,0-2.02.62-3.06,1.64v6.84h-1.32v-9.46h1.02l.22,1.4c1.04-.92,2.12-1.6,3.4-1.6,1.88,0,2.82,1.08,2.82,2.9v6.76h-1.32Z"/>
    <path class="cls-1" d="M439.29,106.63c-1.48,0-2.46-.58-2.46-2.32v-6.18h-1.46v-1.12h1.46v-3.28l1.3-.22v3.5h2.18l.18,1.12h-2.36v5.96c0,.96.38,1.38,1.4,1.38.3,0,.66-.06.88-.1l.2,1.1c-.28.08-.76.16-1.32.16Z"/>
    <path class="cls-1" d="M452.75,106.67c-2.42,0-4.24-1.8-4.24-4.92s1.86-4.94,4.24-4.94,4.3,1.8,4.3,4.94-1.88,4.92-4.3,4.92ZM452.75,97.93c-1.76,0-2.9,1.44-2.9,3.82s1.18,3.8,2.9,3.8,2.94-1.44,2.94-3.8-1.16-3.82-2.94-3.82Z"/>
    <path class="cls-1" d="M462.91,93.37c-.9,0-1.44.42-1.44,1.46v2.18h1.94l.18,1.12h-2.12v8.34h-1.3v-8.34h-1.44v-1.12h1.44v-2.28c0-1.74,1.04-2.54,2.66-2.54.3,0,.48.02.68.04l.2,1.22c-.18-.04-.44-.08-.8-.08Z"/>
    <path class="cls-1" d="M475.11,100.65h-1.72v5.82h-1.38v-13.8h3.4c2.82,0,4.54,1.4,4.54,3.88,0,2.72-2.02,4.1-4.84,4.1ZM475.33,93.89h-1.94v5.54h1.78c2.1,0,3.38-.92,3.38-2.84,0-1.78-1.12-2.7-3.22-2.7Z"/>
    <path class="cls-1" d="M488.31,106.47v-6.52c0-1.22-.56-1.96-1.76-1.96-1,0-2.02.62-3.06,1.64v6.84h-1.32v-14.12l1.32-.24v6.24c.98-.86,2.04-1.54,3.32-1.54,1.88,0,2.82,1.08,2.82,2.88v6.78h-1.32Z"/>
    <path class="cls-1" d="M495.67,107.71c-.66,1.82-1.52,2.36-2.84,2.36-.26,0-.44-.04-.58-.06l-.2-1.18c.22.04.48.08.76.08.82,0,1.3-.36,1.68-1.4l.4-.98-3.58-9.4,1.3-.24,2.92,8.04,2.78-7.92h1.38l-4.02,10.7Z"/>
    <path class="cls-1" d="M504.35,106.65c-1.26,0-2.58-.4-3.4-.86l.22-1.28c.88.56,2.04,1.02,3.3,1.02s2.14-.56,2.14-1.52-.56-1.36-2.44-1.86c-2.1-.54-3-1.22-3-2.78s1.26-2.56,3.22-2.56c1.12,0,2.1.26,2.94.64l-.22,1.26c-.86-.46-1.82-.74-2.76-.74-1.3,0-1.92.56-1.92,1.34s.52,1.18,2.12,1.6c2.24.6,3.32,1.32,3.32,3s-1.34,2.74-3.52,2.74Z"/>
    <path class="cls-1" d="M511.64,94.75c-.52,0-.96-.44-.96-.96s.44-.96.96-.96.94.44.94.96-.42.96-.94.96ZM510.98,106.47v-9.46h1.3v9.46h-1.3Z"/>
    <path class="cls-1" d="M518.96,106.67c-2.42,0-4.28-1.8-4.28-4.92s1.92-4.94,4.36-4.94c1.28,0,2.3.42,3.04.96l-.22,1.32c-.88-.74-1.76-1.14-2.86-1.14-1.72,0-2.98,1.36-2.98,3.78s1.28,3.78,3.06,3.78c1,0,1.94-.3,2.9-1.12l.18,1.22c-.88.68-1.9,1.06-3.2,1.06Z"/>
    <path class="cls-1" d="M527.74,106.65c-1.26,0-2.58-.4-3.4-.86l.22-1.28c.88.56,2.04,1.02,3.3,1.02s2.14-.56,2.14-1.52-.56-1.36-2.44-1.86c-2.1-.54-3-1.22-3-2.78s1.26-2.56,3.22-2.56c1.12,0,2.1.26,2.94.64l-.22,1.26c-.86-.46-1.82-.74-2.76-.74-1.3,0-1.92.56-1.92,1.34s.52,1.18,2.12,1.6c2.24.6,3.32,1.32,3.32,3s-1.34,2.74-3.52,2.74Z"/>
    <path class="cls-1" d="M545.64,106.47l-.22-1.26c-.88.82-1.98,1.46-3.34,1.46-1.64,0-2.82-.9-2.82-2.58,0-2.22,1.8-3.26,6.08-3.68v-.62c0-1.28-.76-1.82-1.96-1.82-1.12,0-2.22.34-3.26.84l-.18-1.18c1.1-.48,2.18-.82,3.52-.82,2.1,0,3.18.98,3.18,2.92v6.74h-1ZM545.34,101.45c-3.72.38-4.76,1.28-4.76,2.56,0,1.02.7,1.54,1.7,1.54s2.14-.56,3.06-1.42v-2.68Z"/>
    <path class="cls-1" d="M555.66,106.47v-6.52c0-1.22-.56-1.96-1.76-1.96-1,0-2.02.62-3.06,1.64v6.84h-1.32v-9.46h1.02l.22,1.4c1.04-.92,2.12-1.6,3.4-1.6,1.88,0,2.82,1.08,2.82,2.9v6.76h-1.32Z"/>
    <path class="cls-1" d="M566.44,106.47l-.24-1.38c-.72.86-1.66,1.58-3.04,1.58-2.08,0-3.82-1.48-3.82-4.66,0-3.46,2.02-5.14,4.32-5.14.96,0,1.8.18,2.46.48v-5l1.32-.24v14.36h-1ZM566.12,98.57c-.74-.38-1.44-.56-2.42-.56-1.7,0-3.02,1.28-3.02,3.94,0,2.3,1.1,3.54,2.6,3.54,1.12,0,2-.68,2.84-1.7v-5.22Z"/>
    <path class="cls-1" d="M581.32,92.59h1.42l5.4,13.72-1.36.3-1.76-4.6h-6.02l-1.7,4.46h-1.42l5.44-13.88ZM579.48,100.79h5.06l-2.54-6.6-2.52,6.6Z"/>
    <path class="cls-1" d="M593.78,106.65c-1.26,0-2.58-.4-3.4-.86l.22-1.28c.88.56,2.04,1.02,3.3,1.02s2.14-.56,2.14-1.52-.56-1.36-2.44-1.86c-2.1-.54-3-1.22-3-2.78s1.26-2.56,3.22-2.56c1.12,0,2.1.26,2.94.64l-.22,1.26c-.86-.46-1.82-.74-2.76-.74-1.3,0-1.92.56-1.92,1.34s.52,1.18,2.12,1.6c2.24.6,3.32,1.32,3.32,3s-1.34,2.74-3.52,2.74Z"/>
    <path class="cls-1" d="M603.38,106.63c-1.48,0-2.46-.58-2.46-2.32v-6.18h-1.46v-1.12h1.46v-3.28l1.3-.22v3.5h2.18l.18,1.12h-2.36v5.96c0,.96.38,1.38,1.4,1.38.3,0,.66-.06.88-.1l.2,1.1c-.28.08-.76.16-1.32.16Z"/>
    <path class="cls-1" d="M608.9,100.53v5.94h-1.32v-9.46h.98l.3,1.94c.7-1.06,1.8-2.1,3.36-2.14l.22,1.24c-1.56.1-2.9,1.22-3.54,2.48Z"/>
    <path class="cls-1" d="M618.57,106.67c-2.42,0-4.24-1.8-4.24-4.92s1.86-4.94,4.24-4.94,4.3,1.8,4.3,4.94-1.88,4.92-4.3,4.92ZM618.57,97.93c-1.76,0-2.9,1.44-2.9,3.82s1.18,3.8,2.9,3.8,2.94-1.44,2.94-3.8-1.16-3.82-2.94-3.82Z"/>
    <path class="cls-1" d="M631.43,106.47v-6.52c0-1.22-.56-1.96-1.76-1.96-1,0-2.02.62-3.06,1.64v6.84h-1.32v-9.46h1.02l.22,1.4c1.04-.92,2.12-1.6,3.4-1.6,1.88,0,2.82,1.08,2.82,2.9v6.76h-1.32Z"/>
    <path class="cls-1" d="M639.73,106.67c-2.42,0-4.24-1.8-4.24-4.92s1.86-4.94,4.24-4.94,4.3,1.8,4.3,4.94-1.88,4.92-4.3,4.92ZM639.73,97.93c-1.76,0-2.9,1.44-2.9,3.82s1.18,3.8,2.9,3.8,2.94-1.44,2.94-3.8-1.16-3.82-2.94-3.82Z"/>
    <path class="cls-1" d="M658.91,106.47v-6.52c0-1.22-.5-1.96-1.72-1.96-.98,0-1.96.6-3,1.62v6.86h-1.3v-6.52c0-1.22-.5-1.96-1.72-1.96-.98,0-1.98.6-3,1.6v6.88h-1.32v-9.46h1.02l.22,1.36c1.02-.9,2.08-1.56,3.34-1.56,1.46,0,2.26.6,2.6,1.64,1.04-.94,2.14-1.64,3.44-1.64,1.88,0,2.76,1.08,2.76,2.88v6.78h-1.32Z"/>
    <path class="cls-1" d="M667.09,107.71c-.66,1.82-1.52,2.36-2.84,2.36-.26,0-.44-.04-.58-.06l-.2-1.18c.22.04.48.08.76.08.82,0,1.3-.36,1.68-1.4l.4-.98-3.58-9.4,1.3-.24,2.92,8.04,2.78-7.92h1.38l-4.02,10.7Z"/>
  </g>
  <g>
    <g>
      <path class="cls-1" d="M49.37,49.82l2.64,19.14,8.67-14.49-3.68,15.94,9.35-8.95-4.87,11.81,7.78-5.81c-3.62,9.85-6.78,15.38-19.89,19.87h0c-13.12-4.49-16.27-10.02-19.89-19.87l7.78,5.81-4.87-11.81,9.35,8.95-3.68-15.94,8.67,14.49,2.64-19.14h0Z"/>
      <g>
        <path class="cls-1" d="M35.63,43.41c-3.97,0-6.35-2.13-6.35-5.7v-8.55h3.29v8.42c0,2.08,1.09,3.22,3.08,3.22s3.12-1.09,3.12-3.16v-8.48h3.32v8.5c0,3.55-2.47,5.76-6.46,5.76"/>
        <path class="cls-1" d="M48.08,34.79h1.2c1.6,0,2.49-.6,2.49-1.69s-.77-1.6-2.36-1.6h-1.33v3.29ZM48.08,40.83h1.42c1.28,0,2.8-.33,2.8-1.89s-1.55-1.95-2.85-1.95h-1.37v3.84ZM49.5,43.17h-4.6v-14.02h4.67c3.41,0,5.29,1.33,5.29,3.72,0,1.26-.66,2.23-1.91,2.83,1.68.59,2.54,1.71,2.54,3.31,0,2.68-2.13,4.15-5.99,4.15"/>
        <path class="cls-1" d="M64.71,43.41c-4.54,0-7.47-2.83-7.47-7.23s3.04-7.26,7.56-7.26c1.68,0,3.09.33,4.31,1.01l.11.06-.49,2.85-.22-.14c-1.2-.81-2.35-1.18-3.6-1.18-2.7,0-4.31,1.74-4.31,4.65s1.67,4.63,4.35,4.63c1.27,0,2.52-.38,3.83-1.17l.21-.13.46,2.66-.1.06c-1.34.77-2.99,1.19-4.65,1.19"/>
      </g>
      <path class="cls-1" d="M24.62,24.76v36.61c0,15.38,8.37,26.52,24.75,30.89,16.38-4.37,24.75-15.51,24.75-30.89V24.76H24.62ZM49.37,90.31c-15.48-4.39-22.88-14.61-22.88-29.18V26.63h45.75v34.5c0,14.57-7.39,24.8-22.88,29.18Z"/>
      <path class="cls-1" d="M49.37,48.14c3.45,0,3.92,1.4,6.7,1.38,2.77.02,3.24-1.38,6.69-1.38s3.93,1.4,6.7,1.38v-3.21c-2.77.02-3.25-1.36-6.7-1.36s-3.93,1.38-6.69,1.36c-2.78.02-3.25-1.36-6.7-1.36s-3.92,1.38-6.7,1.36c-2.77.02-3.24-1.36-6.7-1.36s-3.93,1.38-6.7,1.36v3.21c2.77.02,3.25-1.38,6.7-1.38s3.93,1.4,6.7,1.38c2.78.02,3.25-1.38,6.7-1.38Z"/>
      <g>
        <path class="cls-1" d="M51.56,53.94c1.66.4,2.46,1.16,4.51,1.15,2.77.02,3.24-1.38,6.69-1.38s3.93,1.4,6.7,1.38v-3.21c-2.77.02-3.25-1.36-6.7-1.36s-3.93,1.38-6.69,1.36c-2.23.01-2.97-.87-4.96-1.22l.45,3.29Z"/>
        <path class="cls-1" d="M42.68,55.09c2.05.01,2.84-.75,4.51-1.15l.45-3.29c-1.99.35-2.73,1.24-4.96,1.22-2.77.02-3.24-1.36-6.7-1.36s-3.93,1.38-6.7,1.36v3.21c2.77.02,3.25-1.38,6.7-1.38s3.93,1.4,6.7,1.38Z"/>
      </g>
      <g>
        <path class="cls-1" d="M52.36,59.75c.94.32,1.66.72,2.78.86l1.93-3.22c-.3.04-.63.06-1,.06-1.91.01-2.73-.64-4.17-1.04l.46,3.35Z"/>
        <path class="cls-1" d="M61.2,59.39c.45-.07.96-.12,1.57-.12,3.45,0,3.93,1.4,6.7,1.38v-3.21c-2.77.02-3.25-1.36-6.7-1.36-.29,0-.56.01-.81.03l-.76,3.28Z"/>
        <path class="cls-1" d="M37.55,59.39l-.76-3.28c-.25-.02-.52-.03-.81-.03-3.45,0-3.93,1.38-6.7,1.36v3.21c2.77.02,3.25-1.38,6.7-1.38.61,0,1.12.04,1.57.11Z"/>
        <path class="cls-1" d="M43.6,60.61c1.12-.14,1.84-.54,2.78-.86l.46-3.35c-1.44.41-2.26,1.06-4.17,1.04-.37,0-.7-.02-1-.06l1.93,3.22Z"/>
      </g>
    </g>
    <g>
      <path class="cls-1" d="M104.06,43.17h-2.42v-10.22h-3.8v-2.16h9.89l.32,2.16h-3.99v10.22h0Z"/>
      <path class="cls-1" d="M122.78,43.17h-2.42v-5.33h-5.33v5.33h-2.4v-12.37h2.4v4.83h5.33v-4.83h2.42v12.37h0Z"/>
      <path class="cls-1" d="M137.64,43.17h-7.95v-12.37h7.79v2.14h-5.39v2.74h4.29l.35,2.14h-4.64v3.22h5.55v2.14h0Z"/>
      <path class="cls-1" d="M156.29,43.41c-3.16,0-5.05-1.9-5.05-5.07v-7.54h2.4v7.44c0,1.99.95,3.08,2.67,3.08s2.7-1.05,2.7-3.03v-7.49h2.42v7.44c0,3.24-1.92,5.17-5.14,5.17h0Z"/>
      <path class="cls-1" d="M178.13,43.17h-2.08l-5.89-8.67v8.67h-2.21v-12.37h2.35l5.62,8.31v-8.31h2.21v12.37h0Z"/>
      <path class="cls-1" d="M187.43,43.17h-2.42v-12.37h2.42v12.37h0Z"/>
      <path class="cls-1" d="M199.16,43.36h-2.18l-4.77-12.27,2.42-.53,3.53,9.66,3.46-9.43h2.44l-4.9,12.56h0Z"/>
      <path class="cls-1" d="M216.58,43.17h-7.95v-12.37h7.79v2.14h-5.38v2.74h4.29l.35,2.14h-4.64v3.22h5.55v2.14h0Z"/>
      <path class="cls-1" d="M229.71,43.33l-3.53-4.84h-1.14v4.69h-2.4v-12.37h3.88c2.94,0,4.69,1.44,4.69,3.86,0,1.69-.85,2.89-2.46,3.5l3.43,4.61-2.49.56h0ZM225.05,36.56h1.46c1.49,0,2.32-.66,2.32-1.88,0-1.46-1.26-1.77-2.32-1.77h-1.46v3.65h0Z"/>
      <path class="cls-1" d="M241.02,43.34c-1.31,0-2.81-.32-4.21-.92l-.09-.04.36-2.2.15.08c1.24.65,2.76,1.06,3.89,1.06,1.36,0,2.24-.6,2.24-1.52s-.58-1.28-2.31-1.87c-2.6-.91-3.91-1.72-3.91-3.68,0-2.13,1.72-3.61,4.19-3.61,1.25,0,2.52.26,3.57.73l.09.04-.35,2.25-.15-.08c-1.15-.6-2.21-.89-3.22-.89-1.08,0-1.89.56-1.89,1.31,0,.83.56,1.14,2.48,1.8,2.43.85,3.75,1.69,3.75,3.75,0,2.27-1.84,3.8-4.57,3.8h0Z"/>
      <path class="cls-1" d="M254,43.17h-2.42v-12.37h2.42v12.37h0Z"/>
      <path class="cls-1" d="M264.9,43.17h-2.42v-10.22h-3.8v-2.16h9.89l.32,2.16h-3.99v10.22h0Z"/>
      <path class="cls-1" d="M277.84,43.17h-2.42v-4.78l-4.43-7.3,2.46-.53,3.21,5.63,3.11-5.4h2.66l-4.59,7.57v4.8h0Z"/>
      <path class="cls-1" d="M297.91,43.41c-2.97,0-5.96-2.2-5.96-6.41s2.99-6.43,5.96-6.43,5.93,2.2,5.93,6.41-2.98,6.44-5.93,6.44h0ZM297.91,32.65c-2.1,0-3.52,1.74-3.52,4.32s1.48,4.38,3.52,4.38,3.49-1.75,3.49-4.35-1.47-4.35-3.49-4.35h0Z"/>
      <path class="cls-1" d="M311.81,43.17h-2.39v-12.37h7.59v2.14h-5.19v2.93h4.08l.35,2.14h-4.43v5.17h0Z"/>
      <path class="cls-1" d="M334.17,43.17h-4.07v-12.37h4.05c2.61,0,4.16,1.2,4.16,3.21,0,1.19-.52,2.06-1.54,2.61,1.39.5,2.1,1.47,2.1,2.87,0,2.38-1.67,3.69-4.69,3.69h0ZM332.4,41.16h1.79c1.61,0,2.39-.55,2.39-1.67,0-1.19-.79-1.79-2.36-1.79h-1.81v3.46h0ZM332.4,35.73h1.58c1.38,0,2.07-.51,2.07-1.53,0-.58-.21-1.36-2-1.36h-1.65v2.89h0Z"/>
      <path class="cls-1" d="M351.77,43.33l-3.53-4.84h-1.13v4.69h-2.4v-12.37h3.88c2.94,0,4.69,1.44,4.69,3.86,0,1.69-.85,2.89-2.46,3.5l3.43,4.61-2.49.56h0ZM347.12,36.56h1.46c1.49,0,2.31-.66,2.31-1.88,0-1.46-1.26-1.77-2.31-1.77h-1.46v3.65h0Z"/>
      <path class="cls-1" d="M361.99,43.17h-2.43v-12.37h2.43v12.37h0Z"/>
      <path class="cls-1" d="M372.9,43.17h-2.42v-10.22h-3.8v-2.16h9.89l.32,2.16h-3.99v10.22h0Z"/>
      <path class="cls-1" d="M383.74,43.17h-2.42v-12.37h2.42v12.37h0Z"/>
      <path class="cls-1" d="M393.73,43.34c-1.32,0-2.81-.32-4.21-.92l-.09-.04.35-2.2.15.08c1.24.65,2.77,1.06,3.89,1.06,1.36,0,2.25-.6,2.25-1.52s-.58-1.28-2.31-1.87c-2.59-.91-3.91-1.72-3.91-3.68,0-2.13,1.73-3.61,4.19-3.61,1.25,0,2.51.26,3.56.73l.09.04-.35,2.25-.15-.08c-1.15-.6-2.21-.89-3.22-.89-1.07,0-1.89.56-1.89,1.31,0,.83.56,1.14,2.48,1.8,2.43.85,3.74,1.69,3.74,3.75,0,2.27-1.84,3.8-4.57,3.8h0Z"/>
      <path class="cls-1" d="M413.72,43.17h-2.42v-5.33h-5.32v5.33h-2.4v-12.37h2.4v4.83h5.32v-4.83h2.42v12.37h0Z"/>
      <path class="cls-1" d="M432.31,43.41c-3.56,0-5.96-2.57-5.96-6.39s2.4-6.46,5.96-6.46c1.41,0,2.55.3,3.56.95l.07.04-.38,2.26-.16-.12c-.98-.74-1.93-1.08-3.01-1.08-2.23,0-3.56,1.64-3.56,4.38s1.38,4.37,3.61,4.37c1.07,0,2.18-.38,3.21-1.1l.16-.11.33,2.12-.07.04c-1.07.71-2.4,1.1-3.75,1.1h0Z"/>
      <path class="cls-1" d="M446.53,43.41c-2.97,0-5.96-2.2-5.96-6.41s2.99-6.43,5.96-6.43,5.93,2.2,5.93,6.41-2.99,6.44-5.93,6.44h0ZM446.53,32.65c-2.1,0-3.52,1.74-3.52,4.32s1.48,4.38,3.52,4.38,3.49-1.75,3.49-4.35-1.47-4.35-3.49-4.35h0Z"/>
      <path class="cls-1" d="M465.08,43.17h-7.32v-12.37h2.4v10.26h4.58l.34,2.12h0Z"/>
      <path class="cls-1" d="M474.4,43.41c-3.16,0-5.05-1.9-5.05-5.07v-7.54h2.4v7.44c0,1.99.95,3.08,2.67,3.08s2.69-1.05,2.69-3.04v-7.49h2.43v7.44c0,3.24-1.93,5.17-5.15,5.17h0Z"/>
      <path class="cls-1" d="M493.9,43.22h-2.32l-3.3-9.38-.69,9.34h-2.2l.98-12.37h3.26l3.24,9.48,3.28-9.48h3.19l.98,12.37h-2.4l-.71-9.34-3.31,9.38h0Z"/>
      <path class="cls-1" d="M510.87,43.17h-4.07v-12.37h4.04c2.61,0,4.17,1.2,4.17,3.21,0,1.19-.52,2.06-1.54,2.61,1.38.5,2.09,1.47,2.09,2.87,0,2.38-1.66,3.69-4.69,3.69h0ZM509.1,41.16h1.78c1.61,0,2.39-.55,2.39-1.67,0-1.19-.8-1.79-2.37-1.79h-1.81v3.46h0ZM509.1,35.73h1.57c1.38,0,2.07-.51,2.07-1.53,0-.58-.2-1.36-2-1.36h-1.64v2.89h0Z"/>
      <path class="cls-1" d="M524.06,43.17h-2.43v-12.37h2.43v12.37h0Z"/>
      <path class="cls-1" d="M538.62,43.4l-1.2-3.27h-5.19l-1.13,3.04h-2.37l4.88-12.52h2.56l4.82,12.22-2.38.53h0ZM533.02,38h3.59c-.22-.63-1.12-3.06-1.79-4.85l-1.81,4.85h0Z"/>
    </g>
  </g>
</svg>